<svg width="20px" height="20px" xmlns="http://www.w3.org/2000/svg" xmlns:xlink="http://www.w3.org/1999/xlink" fill="#ffffff" version="1.1" x="0px" y="0px" viewBox="0 0 66 82.5" style="enable-background:new 0 0 66 66;" xml:space="preserve">



<path d="M60.92,1H10.54c-1.7,0-3.08,1.38-3.08,3.08V15.3c0,1.7,1.38,3.09,3.08,3.09h10.94v11.15l-7.36,7.29  c-0.19,0.19-0.35,0.41-0.47,0.66L8.24,48.86l-0.4-0.4c-0.43-0.44-1.01-0.68-1.63-0.68c0,0-0.01,0-0.01,0  c-0.62,0-1.19,0.24-1.63,0.67l-1.89,1.89c-0.9,0.9-0.9,2.37,0,3.27l10.71,10.7C13.82,64.76,14.4,65,15.01,65s1.2-0.24,1.64-0.68  l1.89-1.89c0.9-0.9,0.89-2.36-0.01-3.27l-0.25-0.25l5.64-5.59c0,0,0.01-0.01,0.01-0.01l0.89-0.88c0.22-0.22,0.39-0.49,0.49-0.79  l0.05-0.14h21.28c1.84,0,3.33-1.5,3.33-3.33V18.39h10.94c1.7,0,3.08-1.39,3.08-3.09V4.08C64,2.38,62.62,1,60.92,1z M21.49,10.95  h-2.27c-0.69,0-1.25-0.56-1.25-1.25c0-0.33,0.13-0.65,0.37-0.88c0.24-0.24,0.55-0.37,0.88-0.37h2.27V10.95z M15.46,38.34  c0.02-0.04,0.04-0.07,0.07-0.1l5.95-5.89v9.64l-1.69,1.67c-0.05,0.05-0.08,0.12-0.12,0.18l-0.06,0.06  c-0.01,0.02-0.01,0.04-0.02,0.05c-0.02,0.05-0.04,0.1-0.05,0.15c-0.02,0.07-0.04,0.13-0.04,0.2c0,0.05,0,0.1,0.01,0.16  c0.01,0.07,0.02,0.14,0.04,0.2c0.02,0.05,0.04,0.1,0.06,0.14c0.03,0.07,0.07,0.13,0.12,0.18c0.02,0.02,0.03,0.06,0.05,0.08  c0.02,0.02,0.04,0.02,0.06,0.04c0.02,0.02,0.03,0.04,0.06,0.06c0.04,0.03,0.09,0.04,0.13,0.06c0.05,0.03,0.09,0.05,0.14,0.07  c0.07,0.02,0.14,0.03,0.21,0.04c0.05,0.01,0.1,0.02,0.15,0.02c0.08,0,0.16-0.02,0.24-0.04c0.04-0.01,0.08-0.01,0.12-0.03  c0.11-0.05,0.22-0.12,0.32-0.21l6.7-6.63c0.47-0.47,1.23-0.46,1.7,0.01c0.23,0.23,0.35,0.53,0.35,0.85c0,0.32-0.13,0.62-0.36,0.85  l-1.57,1.55l-1.88,1.86c-0.22,0.22-0.39,0.49-0.49,0.79l-0.36,1.09c0,0,0,0,0,0l-0.66,1.97l-0.8,2.39c-0.26,0.78-0.71,1.5-1.3,2.08  l-5.62,5.56l-7.12-7.19L15.46,38.34z M31,41.58c0.61-0.6,0.94-1.4,0.95-2.26c0-0.85-0.33-1.66-0.93-2.27  c-0.69-0.7-1.62-0.99-2.53-0.92V17.16c1.96-0.4,3.5-1.94,3.9-3.9h6.68c0.4,1.96,1.94,3.5,3.9,3.9V40.6c-1.96,0.4-3.5,1.94-3.9,3.9  h-6.68c-0.22-1.08-0.79-2.03-1.59-2.73L31,41.58z M17.13,61.01l-1.89,1.89c-0.15,0.16-0.29,0.16-0.44,0L4.09,52.2  c-0.12-0.12-0.12-0.32,0-0.45l1.89-1.89c0.07-0.07,0.15-0.09,0.21-0.09c0,0,0,0,0,0c0.05,0,0.14,0.01,0.22,0.09l10.71,10.7  C17.25,60.7,17.25,60.89,17.13,61.01z M47.98,48.17c0,0.74-0.6,1.33-1.33,1.33H26.05c-0.04,0.13-0.09,0.25-0.14,0.37l1.27-3.79  c0.24-0.71,0.65-1.37,1.19-1.9l1-1c0.67,0.55,1.12,1.37,1.12,2.31c0,0.55,0.45,1,1,1h8.48c0.55,0,1-0.45,1-1c0-1.66,1.35-3,3-3  c0.55,0,1-0.45,1-1V16.26c0-0.55-0.45-1-1-1c-1.66,0-3-1.35-3-3c0-0.55-0.45-1-1-1h-8.48c-0.55,0-1,0.45-1,1c0,1.65-1.35,3-3,3  c-0.55,0-1,0.45-1,1v20.78l-1.88,1.86l-0.07,0.07l-1.06,1.05V8.44h24.49V48.17z M52.25,8.44c0.69,0,1.25,0.56,1.25,1.25  c0,0.33-0.13,0.65-0.37,0.88c-0.24,0.24-0.55,0.37-0.88,0.37h-2.27v-2.5H52.25z M62,15.3c0,0.6-0.49,1.09-1.08,1.09H49.98v-3.44  h2.27c0.87,0,1.68-0.34,2.3-0.95c0.61-0.62,0.95-1.43,0.95-2.3c0-1.79-1.46-3.25-3.25-3.25H19.22c-0.87,0-1.68,0.34-2.3,0.95  c-0.61,0.61-0.95,1.43-0.95,2.3c0,1.79,1.46,3.25,3.25,3.25h2.27v3.44H10.54c-0.6,0-1.08-0.49-1.08-1.09V4.08  C9.46,3.49,9.95,3,10.54,3h50.38C61.52,3,62,3.49,62,4.08V15.3z"/><path d="M35.73,31.54c2.84,0,5.16-2.31,5.16-5.16c0-2.85-2.31-5.16-5.16-5.16c-2.85,0-5.16,2.31-5.16,5.16  C30.57,29.22,32.89,31.54,35.73,31.54z M35.73,23.22c1.74,0,3.16,1.42,3.16,3.16s-1.42,3.16-3.16,3.16s-3.16-1.42-3.16-3.16  S33.99,23.22,35.73,23.22z"/>
</svg>